<?xml version="1.0" encoding="utf-8"?>
<svg width="24px" height="24px" viewBox="0 0 24 24" version="1.1" xmlns:xlink="http://www.w3.org/1999/xlink" xmlns="http://www.w3.org/2000/svg">
  <g id="Home">
    <path d="M20.032 6.82165L14.2777 2.79165C12.7093 1.69165 10.3017 1.75165 8.79322 2.92165L3.78821 6.83165C2.78921 7.61165 2 9.21165 2 10.4716L2 17.3716C2 19.9216 4.06793 22.0016 6.61539 22.0016L17.3846 22.0016C19.9321 22.0016 22 19.9316 22 17.3816L22 10.6016C22 9.25165 21.1309 7.59165 20.032 6.82165L20.032 6.82165ZM12.7492 18.0016C12.7492 18.4116 12.4096 18.7516 12 18.7516C11.5904 18.7516 11.2507 18.4116 11.2507 18.0016L11.2507 15.0016C11.2507 14.5916 11.5904 14.2516 12 14.2516C12.4096 14.2516 12.7492 14.5916 12.7492 15.0016L12.7492 18.0016L12.7492 18.0016Z" id="Shape" fill="#FFFFFF" fill-rule="evenodd" stroke="none" />
    <path d="M0 0L24 0L24 24L0 24L0 0Z" id="Rectangle" fill="none" fill-rule="evenodd" stroke="none" />
  </g>
</svg>