<?xml version="1.0" encoding="utf-8"?>
<svg width="24px" height="24px" viewBox="0 0 24 24" version="1.1" xmlns:xlink="http://www.w3.org/1999/xlink" xmlns="http://www.w3.org/2000/svg">
  <g id="vuesaxlinearhome-2">
    <path d="M-281 -1474L-281 -1474L-281 -1450L-305 -1450L-305 -1474L-281 -1474Z" id="vuesaxlinearhome-2" fill="none" stroke="none" />
    <g id="vuesaxlinearhome-2">
      <g id="home-2">
        <path d="M3.63 7.04004C2.73 7.74004 2 9.23004 2 10.36L2 17.77C2 20.09 3.89 21.99 6.21 21.99L17.79 21.99C20.11 21.99 22 20.09 22 17.78L22 10.5C22 9.29004 21.19 7.74004 20.2 7.05004L14.02 2.72004C12.62 1.74004 10.37 1.79004 9.02 2.84004L3.63 7.04004Z" id="Vector" fill="none" stroke="#8D8A9C" stroke-width="1.5" stroke-linecap="round" stroke-linejoin="round" />
        <path d="M12 17.99L12 14.99" id="Vector" fill="none" stroke="#8D8A9C" stroke-width="1.5" stroke-linecap="round" stroke-linejoin="round" />
        <path d="M24 0L24 24L0 24L0 0L24 0Z" id="Vector" fill="none" fill-rule="evenodd" stroke="none" />
      </g>
    </g>
  </g>
</svg>