<svg width="16" height="16" viewBox="0 0 16 16" fill="none" xmlns="http://www.w3.org/2000/svg">
<path d="M8 1.33333H4V2.66666H8V1.33333Z" fill="#E6E6E6" style="fill:#E6E6E6;fill:color(display-p3 0.9020 0.9020 0.9020);fill-opacity:1;"/>
<path d="M3.99999 2.66667H2.66666V6.66667H3.99999V2.66667Z" fill="#E6E6E6" style="fill:#E6E6E6;fill:color(display-p3 0.9020 0.9020 0.9020);fill-opacity:1;"/>
<path d="M9.33333 2.66667H8V6.66667H9.33333V2.66667Z" fill="#E6E6E6" style="fill:#E6E6E6;fill:color(display-p3 0.9020 0.9020 0.9020);fill-opacity:1;"/>
<path d="M14.6667 4H10.6667V6.66667H14.6667V4Z" fill="#E6E6E6" style="fill:#E6E6E6;fill:color(display-p3 0.9020 0.9020 0.9020);fill-opacity:1;"/>
<path d="M8 6.66667H4V8.00001H8V6.66667Z" fill="#E6E6E6" style="fill:#E6E6E6;fill:color(display-p3 0.9020 0.9020 0.9020);fill-opacity:1;"/>
<path d="M12 6.66667H10.6667V13.3333H12V6.66667Z" fill="#E6E6E6" style="fill:#E6E6E6;fill:color(display-p3 0.9020 0.9020 0.9020);fill-opacity:1;"/>
<path d="M5.33332 9.33333H2.66666V10.6667H5.33332V9.33333Z" fill="#E6E6E6" style="fill:#E6E6E6;fill:color(display-p3 0.9020 0.9020 0.9020);fill-opacity:1;"/>
<path d="M10.6667 9.33333H6.66666V10.6667H10.6667V9.33333Z" fill="#E6E6E6" style="fill:#E6E6E6;fill:color(display-p3 0.9020 0.9020 0.9020);fill-opacity:1;"/>
<path d="M2.66668 10.6667H1.33334V14.6667H2.66668V10.6667Z" fill="#E6E6E6" style="fill:#E6E6E6;fill:color(display-p3 0.9020 0.9020 0.9020);fill-opacity:1;"/>
<path d="M7.99999 10.6667H6.66666V13.3333H7.99999V10.6667Z" fill="#E6E6E6" style="fill:#E6E6E6;fill:color(display-p3 0.9020 0.9020 0.9020);fill-opacity:1;"/>
<path d="M10.6667 12H8V13.3333H10.6667V12Z" fill="#E6E6E6" style="fill:#E6E6E6;fill:color(display-p3 0.9020 0.9020 0.9020);fill-opacity:1;"/>
<path d="M5.33332 13.3333H2.66666V14.6667H5.33332V13.3333Z" fill="#E6E6E6" style="fill:#E6E6E6;fill:color(display-p3 0.9020 0.9020 0.9020);fill-opacity:1;"/>
</svg>
