<svg width="16" height="16" viewBox="0 0 16 16" fill="none" xmlns="http://www.w3.org/2000/svg">
<path d="M5.99999 1.33333H3.33332V2.66666H1.99999V3.99999H0.666656V8H1.99999V9.33333H3.33332V10.6667H4.66666V12H5.99999V13.3333H7.33332V14.6667H8.66666V13.3333H9.99999V12H11.3333V10.6667H12.6667V9.33333H14V8H15.3333V3.99999H14V2.66666H12.6667V1.33333H9.99999V2.66666H8.66666V3.99999H7.33332V2.66666H5.99999V1.33333ZM5.99999 2.66666V3.99999H7.33332V5.33333H8.66666V3.99999H9.99999V2.66666H12.6667V3.99999H14V8H12.6667V9.33333H11.3333V10.6667H9.99999V12H8.66666V13.3333H7.33332V12H5.99999V10.6667H4.66666V9.33333H3.33332V8H1.99999V3.99999H3.33332V2.66666H5.99999Z" fill="#E6E6E6" style="fill:#E6E6E6;fill:color(display-p3 0.9020 0.9020 0.9020);fill-opacity:1;"/>
</svg>
