<svg width="16" height="16" viewBox="0 0 16 16" fill="none" xmlns="http://www.w3.org/2000/svg">
  <path
    d="M7.33333 3.33333H2V4.66667H7.33333V3.33333ZM3.33333 4.66667H2V12.6667H3.33333V4.66667ZM12.6667 12.6667H2V14H12.6667V12.6667ZM12.6667 8.66667H11.3333V12.6667H12.6667V8.66667ZM7.33333 8.66667H6V10H7.33333V8.66667ZM8.66667 7.33333H7.33333V8.66667H8.66667V7.33333ZM10 6H8.66667V7.33333H10V6ZM11.3333 4.66667H10V6H11.3333V4.66667ZM12.6667 3.33333H11.3333V4.66667H12.6667V3.33333ZM14 2H12.6667V7.33333H14V2Z"
    fill="#E6E6E6" />
  <path d="M14 2H8.66666V3.33333H14V2Z" fill="#E6E6E6" />
</svg>