<svg width="16" height="16" viewBox="0 0 16 16" fill="none" xmlns="http://www.w3.org/2000/svg">
<path d="M14 2H2V3.33333H14V2Z" fill="#E6E6E6" style="fill:#E6E6E6;fill:color(display-p3 0.9020 0.9020 0.9020);fill-opacity:1;"/>
<path d="M14 4.66666H2V6H14V4.66666Z" fill="#E6E6E6" style="fill:#E6E6E6;fill:color(display-p3 0.9020 0.9020 0.9020);fill-opacity:1;"/>
<path d="M3.33333 7.33334H2V11.3333H3.33333V7.33334Z" fill="#E6E6E6" style="fill:#E6E6E6;fill:color(display-p3 0.9020 0.9020 0.9020);fill-opacity:1;"/>
<path d="M5.99999 7.33334H4.66666V8.66667H5.99999V7.33334Z" fill="#E6E6E6" style="fill:#E6E6E6;fill:color(display-p3 0.9020 0.9020 0.9020);fill-opacity:1;"/>
<path d="M14 7.33334H10V8.66667H14V7.33334Z" fill="#E6E6E6" style="fill:#E6E6E6;fill:color(display-p3 0.9020 0.9020 0.9020);fill-opacity:1;"/>
<path d="M7.33333 8.66666H6V12.6667H7.33333V8.66666Z" fill="#E6E6E6" style="fill:#E6E6E6;fill:color(display-p3 0.9020 0.9020 0.9020);fill-opacity:1;"/>
<path d="M6.00001 10H3.33334V11.3333H6.00001V10Z" fill="#E6E6E6" style="fill:#E6E6E6;fill:color(display-p3 0.9020 0.9020 0.9020);fill-opacity:1;"/>
<path d="M8.66668 10H7.33334V11.3333H8.66668V10Z" fill="#E6E6E6" style="fill:#E6E6E6;fill:color(display-p3 0.9020 0.9020 0.9020);fill-opacity:1;"/>
<path d="M14 10H10V11.3333H14V10Z" fill="#E6E6E6" style="fill:#E6E6E6;fill:color(display-p3 0.9020 0.9020 0.9020);fill-opacity:1;"/>
<path d="M5.99999 12.6667H4.66666V14H5.99999V12.6667Z" fill="#E6E6E6" style="fill:#E6E6E6;fill:color(display-p3 0.9020 0.9020 0.9020);fill-opacity:1;"/>
</svg>
