<svg width="16" height="16" viewBox="0 0 16 16" fill="none" xmlns="http://www.w3.org/2000/svg">
<path d="M4.66668 2H3.33334V7.33333H4.66668V2Z" fill="#E6E6E6" style="fill:#E6E6E6;fill:color(display-p3 0.9020 0.9020 0.9020);fill-opacity:1;"/>
<path d="M3.33333 3.33333H2V4.66666H3.33333V3.33333Z" fill="#E6E6E6" style="fill:#E6E6E6;fill:color(display-p3 0.9020 0.9020 0.9020);fill-opacity:1;"/>
<path d="M14 3.33333H7.33334V4.66666H14V3.33333Z" fill="#E6E6E6" style="fill:#E6E6E6;fill:color(display-p3 0.9020 0.9020 0.9020);fill-opacity:1;"/>
<path d="M14 7.33333H7.33334V8.66666H14V7.33333Z" fill="#E6E6E6" style="fill:#E6E6E6;fill:color(display-p3 0.9020 0.9020 0.9020);fill-opacity:1;"/>
<path d="M4.66667 8.66667H2V10H4.66667V8.66667Z" fill="#E6E6E6" style="fill:#E6E6E6;fill:color(display-p3 0.9020 0.9020 0.9020);fill-opacity:1;"/>
<path d="M5.99999 10H4.66666V11.3333H5.99999V10Z" fill="#E6E6E6" style="fill:#E6E6E6;fill:color(display-p3 0.9020 0.9020 0.9020);fill-opacity:1;"/>
<path d="M4.66668 11.3333H3.33334V14H4.66668V11.3333Z" fill="#E6E6E6" style="fill:#E6E6E6;fill:color(display-p3 0.9020 0.9020 0.9020);fill-opacity:1;"/>
<path d="M14 11.3333H7.33334V12.6667H14V11.3333Z" fill="#E6E6E6" style="fill:#E6E6E6;fill:color(display-p3 0.9020 0.9020 0.9020);fill-opacity:1;"/>
<path d="M3.33333 12.6667H2V14H3.33333V12.6667Z" fill="#E6E6E6" style="fill:#E6E6E6;fill:color(display-p3 0.9020 0.9020 0.9020);fill-opacity:1;"/>
<path d="M5.99999 12.6667H4.66666V14H5.99999V12.6667Z" fill="#E6E6E6" style="fill:#E6E6E6;fill:color(display-p3 0.9020 0.9020 0.9020);fill-opacity:1;"/>
</svg>
