<svg width="16" height="16" viewBox="0 0 16 16" fill="none" xmlns="http://www.w3.org/2000/svg">
<path d="M4.00001 1.33333H9.33334V2.66666H4.00001V1.33333ZM2.66668 3.99999V2.66666H4.00001V3.99999H2.66668ZM2.66668 9.33333H1.33334V3.99999H2.66668V9.33333ZM4.00001 10.6667H2.66668V9.33333H4.00001V10.6667ZM9.33334 10.6667V12H4.00001V10.6667H9.33334ZM10.6667 9.33333H9.33334V10.6667H10.6667V12H12V13.3333H13.3333V14.6667H14.6667V13.3333H13.3333V12H12V10.6667H10.6667V9.33333ZM10.6667 3.99999H12V9.33333H10.6667V3.99999ZM10.6667 3.99999V2.66666H9.33334V3.99999H10.6667Z" fill="#E6E6E6" style="fill:#E6E6E6;fill:color(display-p3 0.9020 0.9020 0.9020);fill-opacity:1;"/>
</svg>
