<svg width="16" height="16" viewBox="0 0 16 16" fill="none" xmlns="http://www.w3.org/2000/svg">
<path d="M7.33333 1.33334H8.66667V14.6667H7.33333V13.3333H6V12H7.33333V4.00001H6V2.66668H7.33333V1.33334ZM4.66667 5.33334V4.00001H6V5.33334H4.66667ZM4.66667 10.6667H2V5.33334H4.66667V6.66668H3.33333V9.33334H4.66667V10.6667ZM4.66667 10.6667V12H6V10.6667H4.66667ZM11.3333 6.66668H10V9.33334H11.3333V6.66668ZM12.6667 5.33334H14V10.6667H12.6667V5.33334ZM12.6667 10.6667V12H10V10.6667H12.6667ZM12.6667 4.00001V5.33334H10V4.00001H12.6667Z" fill="#E6E6E6" style="fill:#E6E6E6;fill:color(display-p3 0.9020 0.9020 0.9020);fill-opacity:1;"/>
</svg>
