<svg width="16" height="16" viewBox="0 0 16 16" fill="none" xmlns="http://www.w3.org/2000/svg">
<path d="M7.33332 1.33334H5.99999V2.66668H4.66666V4.00001H3.33332V5.33334H0.666656V10.6667H3.33332V12H4.66666V13.3333H5.99999V14.6667H7.33332V1.33334ZM4.66666 12V10.6667H3.33332V9.33334H1.99999V6.66668H3.33332V5.33334H4.66666V4.00001H5.99999V12H4.66666ZM8.66666 6.66668H9.99999V9.33334H8.66666V6.66668ZM14 2.66668H12.6667V1.33334H8.66666V2.66668H12.6667V4.00001H14V12H12.6667V13.3333H8.66666V14.6667H12.6667V13.3333H14V12H15.3333V4.00001H14V2.66668ZM12.6667 5.33334H11.3333V4.00001H8.66666V5.33334H11.3333V10.6667H8.66666V12H11.3333V10.6667H12.6667V5.33334Z" fill="#E6E6E6" style="fill:#E6E6E6;fill:color(display-p3 0.9020 0.9020 0.9020);fill-opacity:1;"/>
</svg>
